<svg width="44" height="40" viewBox="0 0 44 40" fill="none" xmlns="http://www.w3.org/2000/svg">
<path d="M2.41225 16.288C8.89084 19.1166 21.1664 17.328 21.1664 26.7064V37.9484C21.1664 37.9484 19.4434 33.1382 5.0733 31.3262L2.41225 16.288Z" fill="white"/>
<path d="M40.7945 17.3738C34.3159 19.1161 22.0003 17.3282 22.0003 26.7066V37.9486C22.0003 37.9486 25.0453 33.1384 39.414 32.4114L40.7924 17.3738H40.7945Z" fill="white"/>
<path d="M38.1438 13.1269C33.7521 16.2972 24.1183 16.1619 22.6172 22.5368C25.3741 16.7161 35.4138 17.4257 38.1438 15.7772V13.1269Z" fill="white"/>
<path d="M5.32208 13.2538C9.7737 16.4242 19.3476 16.2882 20.8487 22.6631C18.0884 16.843 8.05205 17.5527 5.32208 15.9042V13.2538Z" fill="white"/>
<path d="M20.7866 10.9814L22.3353 12.7271L24.6924 12.4765L23.4635 14.448L24.4367 16.5502L22.1285 16.0228L20.3731 17.5728L20.176 15.2749L18.1173 14.131L20.3035 13.2384L20.7866 10.9814Z" fill="white"/>
<path d="M14.1985 6.53357L14.45 7.98573L15.8229 8.60693L14.4804 9.28845L14.2963 10.75L13.215 9.71867L11.729 10.0001L12.4031 8.68199L11.6684 7.39468L13.1667 7.61113L14.1985 6.53357Z" fill="white"/>
<path d="M28.8677 5.08636L29.7554 6.27986L31.2689 6.24568L30.3757 7.43448L30.8768 8.82364L29.4384 8.36528L28.2343 9.25856L28.2378 7.78562L26.9923 6.94864L28.4342 6.49697L28.8677 5.08636Z" fill="white"/>
<path d="M22.6075 0L23.0452 0.862449L24.0246 1.00117L23.3161 1.67196L23.4835 2.62018L22.6075 2.17254L21.7322 2.62018L21.899 1.67196L21.1905 1.00117L22.1699 0.862449L22.6075 0Z" fill="white"/>
</svg>
