<svg width="32" height="32" viewBox="0 0 32 32" fill="none" xmlns="http://www.w3.org/2000/svg">
<path d="M30.6667 12.9466C30.7326 11.0382 30.3152 9.144 29.4533 7.43998C28.8685 6.74078 28.057 6.26893 27.16 6.10665C23.45 5.77001 19.7247 5.63204 16 5.69331C12.2889 5.62926 8.57694 5.76278 4.88 6.09331C4.14909 6.22627 3.47269 6.5691 2.93333 7.07998C1.73333 8.18665 1.6 10.08 1.46667 11.68C1.27322 14.5567 1.27322 17.4432 1.46667 20.32C1.50524 21.2205 1.63933 22.1144 1.86667 22.9866C2.02743 23.6601 2.3527 24.2831 2.81333 24.8C3.35636 25.3379 4.04851 25.7003 4.8 25.84C7.67455 26.1948 10.571 26.3419 13.4667 26.28C18.1333 26.3466 22.2267 26.28 27.0667 25.9066C27.8366 25.7755 28.5483 25.4127 29.1067 24.8666C29.4799 24.4932 29.7588 24.0361 29.92 23.5333C30.3968 22.0701 30.631 20.5388 30.6133 19C30.6667 18.2533 30.6667 13.7466 30.6667 12.9466ZM12.9867 19.8V11.5466L20.88 15.6933C18.6667 16.92 15.7467 18.3066 12.9867 19.8Z" fill="white"/>
</svg>
