<svg width="39" height="24" viewBox="0 0 39 24" fill="none" xmlns="http://www.w3.org/2000/svg">
<g clip-path="url(#clip0_22_14)">
<path d="M2.27056 2.43058C2.43527 2.30624 2.56937 2.14293 2.66187 1.95404C2.75436 1.76516 2.80261 1.55608 2.80266 1.34398V1.34398C2.80243 1.28996 2.79911 1.236 2.79271 1.1824C2.76144 0.858285 2.61589 0.557841 2.3843 0.339359C2.1527 0.120878 1.85157 -6.3462e-05 1.53934 2.49824e-08L0.132196 2.49824e-08C0.0971354 2.49824e-08 0.0635108 0.0145306 0.0387193 0.0403952C0.0139277 0.0662598 0 0.10134 0 0.137918L0 3.42717C0 3.46375 0.0139277 3.49883 0.0387193 3.52469C0.0635108 3.55056 0.0971354 3.56509 0.132196 3.56509H0.707442C0.742502 3.56509 0.776127 3.55056 0.800918 3.52469C0.82571 3.49883 0.839637 3.46375 0.839637 3.42717V2.68795H1.45139L1.99124 3.5068C2.00373 3.52514 2.02036 3.53999 2.03965 3.55006C2.05894 3.56012 2.0803 3.56508 2.10186 3.56451H2.7656C2.78981 3.56468 2.8136 3.55793 2.8344 3.54501C2.8552 3.53209 2.87221 3.51348 2.88361 3.49119C2.895 3.46891 2.90033 3.4438 2.89903 3.41858C2.89773 3.39336 2.88985 3.36899 2.87623 3.34811L2.27056 2.43058ZM1.51555 1.81486H0.839637V0.87598H1.51555C1.63216 0.880246 1.74263 0.931572 1.82367 1.01914C1.90472 1.10671 1.95001 1.22369 1.95001 1.34542C1.95001 1.46715 1.90472 1.58412 1.82367 1.6717C1.74263 1.75927 1.63216 1.81059 1.51555 1.81486V1.81486Z" fill="white"/>
<path d="M5.98416 0.738062V0.137918C5.98416 0.10134 5.97023 0.0662598 5.94544 0.0403952C5.92065 0.0145306 5.88703 0 5.85197 0L3.54767 0C3.51255 -3.17977e-07 3.47887 0.0145118 3.45399 0.04036C3.42911 0.0662081 3.41506 0.101287 3.41492 0.137918V3.42717C3.41506 3.4638 3.42911 3.49888 3.45399 3.52473C3.47887 3.55058 3.51255 3.56509 3.54767 3.56509H5.85197C5.88703 3.56509 5.92065 3.55056 5.94544 3.52469C5.97023 3.49883 5.98416 3.46375 5.98416 3.42717V2.8276C5.98416 2.79103 5.97023 2.75595 5.94544 2.73008C5.92065 2.70422 5.88703 2.68969 5.85197 2.68969H4.25511V2.19284H5.40228C5.43734 2.19284 5.47096 2.1783 5.49576 2.15244C5.52055 2.12658 5.53448 2.0915 5.53448 2.05492V1.45246C5.53455 1.4343 5.53118 1.41631 5.52457 1.39951C5.51796 1.38271 5.50824 1.36744 5.49595 1.35457C5.48367 1.3417 5.46907 1.33149 5.453 1.32452C5.43692 1.31756 5.41969 1.31397 5.40228 1.31397H4.25511V0.87598H5.85197C5.88703 0.87598 5.92065 0.861449 5.94544 0.835585C5.97023 0.80972 5.98416 0.77464 5.98416 0.738062V0.738062Z" fill="white"/>
<path d="M11.022 0H10.4036C10.3425 0 10.293 0.0516719 10.293 0.115412V3.45141C10.293 3.51515 10.3425 3.56682 10.4036 3.56682H11.022C11.0831 3.56682 11.1326 3.51515 11.1326 3.45141V0.115412C11.1326 0.0516719 11.0831 0 11.022 0Z" fill="white"/>
<path d="M13.8463 0.738062V0.137918C13.8463 0.10134 13.8324 0.0662598 13.8076 0.0403952C13.7828 0.0145306 13.7492 0 13.7141 0L12.6953 0C12.4129 0 12.142 0.117035 11.9424 0.325359C11.7427 0.533682 11.6305 0.81623 11.6305 1.11084V1.11084C11.6305 1.40546 11.7427 1.68801 11.9424 1.89633C12.142 2.10465 12.4129 2.22169 12.6953 2.22169H13.0393C13.0989 2.22169 13.1561 2.24635 13.1983 2.29027C13.2405 2.33419 13.2643 2.39379 13.2644 2.45598V2.45598C13.2644 2.51827 13.2407 2.578 13.1985 2.62205C13.1563 2.66609 13.099 2.69084 13.0393 2.69084H11.7815C11.7465 2.69069 11.7129 2.70499 11.6881 2.73062C11.6632 2.75625 11.649 2.79113 11.6487 2.8276V3.42775C11.6486 3.446 11.6519 3.46411 11.6585 3.48101C11.6652 3.49792 11.6749 3.51329 11.6873 3.52622C11.6996 3.53916 11.7143 3.54941 11.7305 3.55638C11.7467 3.56335 11.764 3.5669 11.7815 3.56682H13.0398C13.3222 3.56682 13.5931 3.44978 13.7927 3.24146C13.9924 3.03314 14.1046 2.75059 14.1046 2.45598V2.45598C14.1046 2.16136 13.9924 1.87881 13.7927 1.67049C13.5931 1.46217 13.3222 1.34513 13.0398 1.34513H12.6958C12.6362 1.34513 12.579 1.32047 12.5368 1.27655C12.4946 1.23262 12.4708 1.17303 12.4707 1.11084V1.11084C12.4707 1.04855 12.4944 0.988816 12.5366 0.94477C12.5788 0.900724 12.6361 0.87598 12.6958 0.87598H13.7147C13.7496 0.875827 13.7831 0.861229 13.8078 0.835381C13.8324 0.809533 13.8463 0.77454 13.8463 0.738062V0.738062Z" fill="white"/>
<path d="M9.02415 0.0877299L8.13916 2.44791L7.25416 0.0877299C7.2444 0.0616624 7.22726 0.0393107 7.20504 0.0236439C7.18281 0.00797698 7.15653 -0.000263664 7.12971 1.65036e-05H6.57659C6.55503 7.98197e-05 6.53382 0.00561815 6.51477 0.0161529C6.49573 0.0266876 6.47943 0.0419018 6.46729 0.0604807C6.45514 0.0790596 6.44752 0.100444 6.44507 0.122787C6.44263 0.145129 6.44543 0.167757 6.45324 0.188716L7.68836 3.47797C7.69806 3.50385 7.71502 3.52608 7.73703 3.54173C7.75904 3.55738 7.78507 3.56573 7.81171 3.56568H8.46826C8.4949 3.56573 8.52093 3.55738 8.54294 3.54173C8.56495 3.52608 8.58191 3.50385 8.59161 3.47797L9.82617 0.188716C9.83413 0.167762 9.83704 0.145094 9.83465 0.122695C9.83227 0.100296 9.82465 0.0788481 9.81248 0.0602286C9.80031 0.041609 9.78395 0.0263848 9.76484 0.0158881C9.74572 0.00539136 9.72443 -5.81006e-05 9.70283 1.65036e-05H9.14971C9.12271 -0.000418224 9.09623 0.0077447 9.0738 0.0234164C9.05136 0.0390881 9.03404 0.0615235 9.02415 0.0877299V0.0877299Z" fill="white"/>
<path d="M16.9382 3.56682H17.4914C17.513 3.56689 17.5342 3.56144 17.5534 3.55095C17.5725 3.54045 17.5888 3.52523 17.601 3.50661C17.6132 3.48799 17.6208 3.46654 17.6232 3.44414C17.6256 3.42174 17.6227 3.39907 17.6147 3.37812L16.3801 0.0888675C16.3709 0.0636182 16.3547 0.0417493 16.3337 0.0259578C16.3127 0.0101663 16.2877 0.00114278 16.2618 7.97577e-09H15.598C15.5715 -9.43309e-06 15.5455 0.00836301 15.5236 0.0240175C15.5017 0.0396719 15.4848 0.0618762 15.4752 0.0877134L14.2401 3.37697C14.2323 3.39792 14.2295 3.42055 14.2319 3.44289C14.2344 3.46524 14.242 3.48662 14.2542 3.5052C14.2663 3.52378 14.2826 3.53899 14.3016 3.54953C14.3207 3.56006 14.3419 3.5656 14.3635 3.56566H14.9166C14.9439 3.56687 14.971 3.55919 14.9939 3.54369C15.0169 3.52818 15.0347 3.50562 15.0449 3.47911L15.2661 2.88531H16.5936L16.8149 3.47853C16.8246 3.50447 16.8415 3.52678 16.8635 3.54252C16.8855 3.55827 16.9115 3.56674 16.9382 3.56682V3.56682ZM15.598 2.00991L15.9299 1.11892L16.2618 2.00991H15.598Z" fill="white"/>
<path d="M0 4.9166V14.7624C0 14.8007 0.0145688 14.8374 0.0405013 14.8644C0.0664339 14.8915 0.101606 14.9067 0.13828 14.9067H7.23206C7.26873 14.9067 7.3039 14.8915 7.32983 14.8644C7.35577 14.8374 7.37034 14.8007 7.37034 14.7624V12.3388C7.37034 12.3005 7.35577 12.2638 7.32983 12.2368C7.3039 12.2097 7.26873 12.1945 7.23206 12.1945H2.59967V11.1096H5.99085C6.02753 11.1096 6.0627 11.0944 6.08863 11.0674C6.11456 11.0403 6.12913 11.0036 6.12913 10.9654V8.54055C6.12913 8.50229 6.11456 8.4656 6.08863 8.43854C6.0627 8.41149 6.02753 8.39629 5.99085 8.39629H2.59967V7.48453H7.2315C7.26818 7.48453 7.30335 7.46933 7.32928 7.44228C7.35521 7.41522 7.36978 7.37853 7.36978 7.34026V4.9166C7.36978 4.87834 7.35521 4.84165 7.32928 4.81459C7.30335 4.78754 7.26818 4.77234 7.2315 4.77234H0.13828C0.120121 4.77234 0.10214 4.77607 0.0853627 4.78332C0.0685857 4.79057 0.0533418 4.8012 0.0405013 4.81459C0.0276608 4.82799 0.0174752 4.84389 0.010526 4.8614C0.00357672 4.8789 0 4.89766 0 4.9166H0Z" fill="white"/>
<path d="M35.808 4.84731L33.153 10.8384L30.5002 4.84731C30.4882 4.82493 30.4707 4.80629 30.4495 4.79331C30.4283 4.78032 30.4042 4.77347 30.3796 4.77345H27.4481C27.4114 4.77345 27.3762 4.78865 27.3503 4.8157C27.3244 4.84276 27.3098 4.87945 27.3098 4.91771V14.7624C27.3098 14.8007 27.3244 14.8374 27.3503 14.8644C27.3762 14.8915 27.4114 14.9067 27.4481 14.9067H29.7712C29.8079 14.9067 29.843 14.8915 29.869 14.8644C29.8949 14.8374 29.9095 14.8007 29.9095 14.7624V10.5683L31.8183 14.8236C31.8295 14.8483 31.8472 14.8693 31.8693 14.884C31.8914 14.8987 31.9171 14.9065 31.9433 14.9067H34.3676C34.3939 14.9065 34.4197 14.8986 34.4419 14.8839C34.4641 14.8693 34.4819 14.8483 34.4932 14.8236L36.402 10.5683V14.7624C36.4019 14.7813 36.4054 14.8001 36.4123 14.8176C36.4192 14.8351 36.4294 14.851 36.4422 14.8644C36.455 14.8778 36.4702 14.8884 36.4869 14.8957C36.5037 14.9029 36.5216 14.9067 36.5397 14.9067H38.8628C38.881 14.9067 38.8989 14.9029 38.9157 14.8957C38.9324 14.8884 38.9476 14.8778 38.9604 14.8644C38.9732 14.851 38.9834 14.8351 38.9902 14.8176C38.9971 14.8001 39.0006 14.7813 39.0006 14.7624V4.91656C39.0006 4.89764 38.9971 4.87889 38.9902 4.86139C38.9834 4.8439 38.9732 4.82799 38.9604 4.81458C38.9476 4.80118 38.9324 4.79054 38.9157 4.78329C38.8989 4.77603 38.881 4.77229 38.8628 4.77229H35.9313C35.9061 4.77191 35.8814 4.77869 35.8596 4.79191C35.8379 4.80513 35.82 4.82428 35.808 4.84731V4.84731Z" fill="white"/>
<g opacity="0.3">
<path opacity="0.3" d="M16.9383 17.1924C16.9665 17.227 16.9936 17.2616 17.024 17.2957C17.0389 17.313 17.055 17.3303 17.071 17.3476C17.0992 17.3788 17.1263 17.4105 17.1556 17.4411C17.7318 18.0472 18.4627 18.4678 19.2614 18.6529L19.2741 17.6414C18.6611 17.4575 18.1115 17.094 17.6905 16.594C17.4693 16.3315 17.2872 16.0358 17.1501 15.7169L17.1346 15.6817C17.1219 15.6505 17.1097 15.6193 17.0976 15.5876C17.0898 15.5668 17.0815 15.5466 17.0743 15.5258C17.0671 15.5051 17.0561 15.4733 17.0472 15.4468C17.0384 15.4202 17.029 15.392 17.0201 15.3648C17.0113 15.3377 17.0074 15.321 17.0008 15.2991C16.9914 15.2656 16.982 15.2315 16.9731 15.1975C16.9687 15.1802 16.9643 15.1629 16.9604 15.1456C16.9504 15.1052 16.9416 15.0648 16.9333 15.0244C16.9333 15.0117 16.9283 14.9996 16.9255 14.9869C16.9167 14.939 16.9084 14.8911 16.9012 14.8426C16.9012 14.8363 16.9012 14.8299 16.8984 14.8241C16.8261 14.329 16.8572 13.8233 16.9895 13.3418C17.1218 12.8603 17.3522 12.4143 17.6651 12.0344C17.9779 11.6544 18.3657 11.3494 18.802 11.1403C19.2383 10.9312 19.7127 10.8229 20.1928 10.8228C20.6933 10.8231 21.1872 10.9414 21.6376 11.169C22.1214 11.4129 22.542 11.7745 22.8639 12.2233C23.2926 12.8236 23.5242 13.5522 23.5242 14.3007C23.5242 15.0493 23.2926 15.7779 22.8639 16.3782L22.8567 16.388L22.813 16.4457C22.8757 16.4301 22.9399 16.4221 23.0043 16.422C23.1437 16.4227 23.2807 16.4587 23.4037 16.527C23.5297 16.5962 23.6386 16.695 23.7217 16.8156C24.1599 16.145 24.4145 15.3625 24.4582 14.5522C24.5018 13.742 24.3328 12.9346 23.9694 12.2171C23.606 11.4995 23.0619 10.899 22.3956 10.48C21.7294 10.0611 20.9663 9.83963 20.1884 9.83948V9.83948C19.0543 9.83948 17.9666 10.3095 17.1647 11.1462C16.3628 11.9828 15.9122 13.1175 15.9122 14.3007C15.9122 14.3273 15.9122 14.3533 15.9122 14.3798C15.9122 14.43 15.9122 14.4802 15.9161 14.5304C15.9161 14.5431 15.9161 14.5564 15.9189 14.5697C15.9222 14.632 15.9266 14.6949 15.9327 14.7566C15.9327 14.7705 15.936 14.7849 15.9377 14.7987C15.9443 14.8593 15.951 14.9199 15.9598 14.9794C15.9598 14.9955 15.9653 15.0111 15.9675 15.0267C15.9769 15.0844 15.9858 15.1421 15.9969 15.1998C16.0007 15.2177 16.0052 15.2356 16.009 15.2535C16.0201 15.3077 16.0317 15.362 16.0444 15.415C16.0494 15.4347 16.0555 15.4537 16.0605 15.4728C16.0737 15.5241 16.087 15.5755 16.102 15.6263C16.1086 15.6476 16.1158 15.6684 16.1224 15.6897C16.1374 15.7376 16.1523 15.7861 16.1689 15.8328C16.1772 15.8559 16.1866 15.879 16.1949 15.9015C16.2115 15.9465 16.2275 15.991 16.2452 16.0348C16.2552 16.0591 16.2657 16.0827 16.2762 16.1064C16.2939 16.1485 16.3116 16.1906 16.3315 16.2322C16.3426 16.2564 16.3553 16.2806 16.3669 16.3049C16.3863 16.3447 16.4051 16.3851 16.4255 16.4243C16.4382 16.4486 16.4521 16.4722 16.4654 16.4965C16.4858 16.5345 16.5063 16.5732 16.5279 16.6119L16.5716 16.6829C16.5937 16.7198 16.6152 16.7567 16.6385 16.7925C16.6534 16.8156 16.6695 16.8381 16.6849 16.8612C16.7093 16.8964 16.7325 16.9321 16.7574 16.9673C16.7729 16.9893 16.7895 17.01 16.8055 17.0314C16.8315 17.0666 16.857 17.1018 16.8841 17.1358C16.9056 17.1537 16.9222 17.1728 16.9383 17.1924Z" fill="white"/>
</g>
<path d="M25.4087 17.7735C25.4058 17.5857 25.3519 17.4026 25.2533 17.2455C25.189 17.1459 25.1085 17.0588 25.0154 16.9882C24.8518 16.865 24.6547 16.7995 24.4529 16.8012C24.3656 16.8022 24.279 16.8166 24.1957 16.8439C24.0942 16.8756 23.9985 16.9247 23.9125 16.9893C23.8238 16.7734 23.6641 16.5977 23.4623 16.4936C23.3129 16.413 23.1452 16.377 22.9775 16.3897C22.8098 16.4023 22.6487 16.463 22.512 16.5652L22.5054 16.5698C22.4877 16.5831 22.4705 16.5963 22.4539 16.6102C22.3838 16.4757 22.2843 16.3602 22.1635 16.2732C22.0056 16.1555 21.8162 16.0925 21.622 16.0931H21.6093C21.5063 16.0951 21.4043 16.1146 21.3073 16.1508C21.2536 16.1702 21.2018 16.1947 21.1524 16.2241V14.9632V14.8882C21.1524 14.7399 21.1524 14.5864 21.1386 14.4266C21.1157 14.1806 21.0057 13.9524 20.83 13.7867C20.6544 13.6209 20.4258 13.5295 20.1889 13.5304V13.6025V13.5304C20.0796 13.5319 19.9714 13.5542 19.8698 13.5962C19.4942 13.7474 19.253 14.1375 19.2547 14.5893V19.4101C19.1234 19.2531 18.9908 19.0937 18.857 18.9317L18.7674 18.8238C18.6673 18.6955 18.5406 18.5926 18.3969 18.5226C18.2532 18.4526 18.0962 18.4175 17.9377 18.4198C17.8443 18.4215 17.7515 18.4349 17.6611 18.4597C17.4788 18.507 17.3114 18.6032 17.1756 18.7387C17.0398 18.8742 16.9402 19.0444 16.8868 19.2324V19.2404C16.833 19.426 16.8264 19.623 16.8676 19.8121C16.9089 20.0012 16.9964 20.1758 17.1218 20.319L17.8409 21.1349C18.0356 21.3565 18.2369 21.585 18.4338 21.8124C18.7989 22.2337 19.227 22.7357 19.6308 23.2781C19.7881 23.4983 19.9921 23.6776 20.2268 23.8019C20.4615 23.9262 20.7205 23.9923 20.9837 23.9948C21.1923 24 21.4036 24.0012 21.5972 24.0012H21.9351C22.2034 24.0012 22.4733 24.0012 22.6774 24.0012H22.7465C23.2172 23.9948 23.6614 23.8529 24.1437 23.5551L24.2322 23.4888C24.3038 23.4388 24.3725 23.3845 24.438 23.326C24.6039 23.1748 24.8412 22.9319 24.9424 22.5614C25.0973 21.9852 25.2072 21.3967 25.271 20.802C25.323 20.3461 25.375 19.8567 25.3993 19.3703C25.4165 18.9179 25.4203 18.4262 25.4087 17.7735ZM17.9521 18.9329C18.0377 18.9342 18.122 18.9556 18.1986 18.9956C18.2752 19.0356 18.3422 19.093 18.3946 19.1637L18.4836 19.2699C18.7375 19.5774 18.9931 19.8844 19.2442 20.1828L19.2995 20.2463C19.3241 20.2755 19.3544 20.2989 19.3883 20.315C19.4223 20.3311 19.4591 20.3396 19.4964 20.3397H19.4997C19.5298 20.3392 19.5596 20.3331 19.5877 20.3218C19.6275 20.3058 19.6628 20.2793 19.69 20.245C19.7172 20.2106 19.7355 20.1695 19.7431 20.1256V20.1141C19.7467 20.0984 19.7482 20.0823 19.7475 20.0662V14.5899C19.7475 14.3487 19.862 14.1525 20.049 14.0775C20.0951 14.0584 20.1442 14.0483 20.1939 14.0474H20.2011C20.3128 14.0492 20.42 14.0935 20.5026 14.1721C20.5851 14.2506 20.6372 14.358 20.6491 14.4739C20.6607 14.6118 20.6607 14.7544 20.6613 14.8923V14.9644V17.8843C20.6613 18.0767 20.6613 18.2712 20.6613 18.4677V18.5514C20.6613 18.7182 20.6613 18.885 20.6613 19.054V19.2064C20.6613 19.3939 20.7603 19.5157 20.9185 19.5174C20.9507 19.5175 20.9825 19.5107 21.0121 19.4973C21.0416 19.4839 21.0681 19.4642 21.0899 19.4395C21.1184 19.4078 21.1405 19.3705 21.155 19.3298C21.1696 19.2891 21.1762 19.2458 21.1746 19.2023C21.1707 18.6622 21.1701 18.1434 21.1701 17.7072V17.148C21.1701 16.9033 21.2874 16.7031 21.471 16.6379C21.5181 16.6205 21.5677 16.6114 21.6176 16.6108C21.7121 16.6076 21.8048 16.6377 21.8809 16.6962C21.9441 16.7435 21.9951 16.8063 22.0294 16.8791C22.0638 16.9518 22.0804 17.0323 22.0778 17.1134V17.2865C22.0778 17.5173 22.0778 17.7435 22.0778 17.9709V18.8815C22.0778 18.9738 22.0778 19.0679 22.0778 19.1602V19.23C22.0769 19.2693 22.0835 19.3083 22.0974 19.3448C22.1113 19.3813 22.1321 19.4145 22.1586 19.4424C22.2075 19.491 22.2727 19.5175 22.3402 19.5162C22.4078 19.5149 22.472 19.4859 22.5192 19.4355C22.5649 19.3821 22.5895 19.3126 22.5878 19.241C22.5878 19.0892 22.5878 18.9381 22.5878 18.7869V18.7453C22.5878 18.6622 22.5878 18.5797 22.5878 18.4966V17.4388C22.5878 17.2386 22.6558 17.0874 22.7869 16.9905C22.8561 16.9407 22.9372 16.9119 23.0211 16.9075C23.1051 16.9031 23.1886 16.9232 23.2622 16.9655C23.3358 17.0078 23.3967 17.0706 23.438 17.147C23.4793 17.2234 23.4994 17.3103 23.496 17.3979C23.496 17.7239 23.496 18.0534 23.496 18.3818V19.2277C23.494 19.2774 23.5048 19.3268 23.5271 19.3707C23.5495 19.4146 23.5827 19.4515 23.6232 19.4776C23.6626 19.5014 23.7074 19.5137 23.7529 19.5133C23.7985 19.5128 23.843 19.4997 23.882 19.4752C23.921 19.4506 23.953 19.4157 23.9746 19.3739C23.9962 19.3321 24.0067 19.285 24.0049 19.2375V18.8261C24.0049 18.5024 24.0049 18.1798 24.0049 17.8561C24.0049 17.5958 24.1271 17.4019 24.3368 17.3367C24.3751 17.3241 24.415 17.3175 24.4551 17.3171C24.5511 17.3163 24.6447 17.3477 24.7223 17.4065C24.7671 17.4404 24.8058 17.4822 24.8368 17.53C24.8841 17.6056 24.9099 17.6936 24.9115 17.7839C24.9225 18.4256 24.9192 18.9069 24.9004 19.342C24.8772 19.8135 24.8263 20.2918 24.7748 20.7396C24.714 21.307 24.6095 21.8684 24.4623 22.4183C24.3982 22.6532 24.2411 22.8176 24.1078 22.9377C24.0536 22.9857 23.9967 23.0302 23.9374 23.071L23.8821 23.1137C23.4783 23.3624 23.1133 23.4807 22.7327 23.4859H22.6779C22.4302 23.4859 22.1801 23.4859 21.9296 23.4859C21.6674 23.4859 21.3211 23.4888 20.9893 23.4813C20.7995 23.479 20.6128 23.431 20.4438 23.3409C20.2748 23.2508 20.1281 23.1211 20.0152 22.9619C19.6026 22.4085 19.1667 21.8961 18.795 21.4673C18.5937 21.2365 18.3918 21.0057 18.1894 20.7748L17.4803 19.9704C17.4124 19.8924 17.3652 19.7974 17.3431 19.6946C17.3209 19.5919 17.3248 19.4849 17.3542 19.3841C17.3824 19.2802 17.4366 19.1859 17.5111 19.1109C17.5856 19.0359 17.6778 18.9828 17.7784 18.9571C17.8315 18.9426 17.8861 18.9344 17.941 18.9329H17.9521Z" fill="white"/>
<g opacity="0.3">
<path opacity="0.3" d="M17.1883 14.5021C17.1883 14.5362 17.1927 14.5702 17.196 14.6043C17.196 14.6245 17.2004 14.6441 17.2026 14.662C17.2054 14.6908 17.2093 14.7197 17.2132 14.7497C17.217 14.7797 17.2192 14.7936 17.2231 14.8155C17.227 14.8374 17.2314 14.8674 17.2364 14.8934C17.2414 14.9194 17.2452 14.9407 17.2502 14.9644C17.2552 14.988 17.2602 15.0105 17.2651 15.033L17.2834 15.1098C17.2884 15.1283 17.2934 15.1467 17.2989 15.1675C17.3066 15.1964 17.3144 15.2252 17.3232 15.2541C17.3232 15.2604 17.3276 15.2668 17.3293 15.2731C17.3595 15.37 17.3942 15.4643 17.4333 15.5559C17.4604 15.6216 17.4886 15.6857 17.5207 15.7486C17.5209 15.7503 17.5209 15.7521 17.5207 15.7538C17.54 15.7919 17.56 15.8294 17.581 15.8692V15.8732C17.6097 15.9246 17.6402 15.9748 17.6711 16.0244L17.6971 16.0648C17.7281 16.1122 17.7602 16.1595 17.7934 16.2051L17.8116 16.2293L17.8708 16.3072C18.2382 16.7701 18.725 17.1135 19.2735 17.2969L19.2862 16.3159C18.9178 16.1349 18.6066 15.848 18.3891 15.4889C18.1667 15.1206 18.0531 14.6921 18.0624 14.2569C18.0717 13.8217 18.2036 13.3989 18.4415 13.0413C18.6794 12.6837 19.0129 12.407 19.4005 12.2456C19.7881 12.0843 20.2125 12.0455 20.6211 12.134C21.0296 12.2225 21.4042 12.4345 21.6981 12.7434C21.9921 13.0524 22.1924 13.4448 22.2742 13.8717C22.3559 14.2986 22.3155 14.7411 22.158 15.1442C22.0004 15.5473 21.7327 15.8932 21.3881 16.1387C21.453 16.1231 21.5195 16.1151 21.5861 16.115C21.7709 16.1139 21.9512 16.1746 22.1005 16.2882C22.1857 16.3535 22.2589 16.4342 22.3168 16.5265L22.3284 16.5149C22.3561 16.4855 22.3837 16.4572 22.4103 16.4255L22.4435 16.3857C22.4623 16.3632 22.4811 16.3412 22.4988 16.3187L22.532 16.276C22.5497 16.253 22.5679 16.2293 22.5873 16.2056L22.6166 16.1652C22.6354 16.1381 22.6542 16.111 22.6719 16.0833C22.6785 16.0723 22.6857 16.0619 22.6929 16.0516C22.7714 15.9288 22.8418 15.8005 22.9037 15.6678V15.6638C22.9241 15.6193 22.9435 15.5743 22.9623 15.5287V15.5259C23.1474 15.0685 23.226 14.5718 23.1915 14.0766C23.1571 13.5814 23.0106 13.1017 22.7641 12.677C22.5176 12.2523 22.1781 11.8946 21.7734 11.6333C21.3688 11.372 20.9105 11.2145 20.4362 11.1737C20.3543 11.1667 20.2702 11.1621 20.1873 11.1621C19.3885 11.1621 18.6225 11.4932 18.0577 12.0824C17.4928 12.6717 17.1755 13.4709 17.1755 14.3042V14.3042C17.1755 14.3556 17.1755 14.4064 17.1794 14.4571C17.186 14.4698 17.1877 14.4843 17.1883 14.5021Z" fill="white"/>
</g>
<g opacity="0.3">
<path opacity="0.3" d="M18.4262 14.4081C18.4262 14.4197 18.4262 14.4306 18.4262 14.4416C18.4262 14.4653 18.4295 14.4889 18.4322 14.512C18.4322 14.5235 18.435 14.5351 18.4367 14.546C18.4394 14.5703 18.4428 14.5939 18.4466 14.6176L18.4516 14.6459C18.4566 14.6736 18.4621 14.7007 18.4682 14.7278L18.4715 14.7428C18.482 14.7867 18.4942 14.8294 18.5075 14.8721L18.5207 14.9136C18.5318 14.9465 18.544 14.9788 18.5567 15.0106C18.5606 15.021 18.5644 15.0319 18.5689 15.0423C18.5821 15.0735 18.596 15.1046 18.6109 15.1346C18.7637 15.4492 18.9993 15.7119 19.2901 15.8918L19.3078 14.5137C19.3112 14.0879 19.5418 13.7249 19.8958 13.5875C19.9914 13.5496 20.0928 13.5301 20.195 13.5298C20.417 13.5318 20.6303 13.6202 20.7931 13.7778C20.9558 13.9354 21.0562 14.1507 21.0745 14.3816C21.0856 14.5385 21.0839 14.6909 21.0822 14.838V14.9113L21.0684 15.9027L21.1027 15.8819H21.1055C21.1287 15.8675 21.1514 15.8519 21.1741 15.8358C21.1967 15.8196 21.2194 15.8035 21.241 15.7861C21.2631 15.7688 21.2852 15.7509 21.3068 15.7325C21.5669 15.5089 21.7602 15.2123 21.864 14.8778C21.9678 14.5433 21.9777 14.1848 21.8926 13.8446C21.8075 13.5044 21.6309 13.1967 21.3836 12.9578C21.1363 12.7189 20.8287 12.5588 20.497 12.4963C20.3934 12.4763 20.2883 12.4663 20.1829 12.4663C19.7144 12.4671 19.2653 12.6616 18.9341 13.0072C18.6028 13.3528 18.4164 13.8213 18.4156 14.31V14.3112C18.4234 14.3418 18.4239 14.3752 18.4262 14.4081Z" fill="white"/>
</g>
<path d="M20.1939 11.1586C19.7015 11.1581 19.2166 11.2837 18.7817 11.5245V12.6457C19.1261 12.3276 19.5598 12.1343 20.0181 12.0945C20.4764 12.0547 20.9348 12.1706 21.3248 12.4249C21.7148 12.6793 22.0155 13.0584 22.182 13.5056C22.3485 13.9529 22.3719 14.4444 22.2487 14.9067H23.1613C23.2502 14.4266 23.2305 13.9315 23.104 13.4607C22.9774 12.9899 22.7475 12.5564 22.4323 12.1945H21.3814V11.412C21.0061 11.2445 20.6021 11.1583 20.1939 11.1586Z" fill="white"/>
<path d="M23.5369 14.3111C23.5366 14.5106 23.52 14.7096 23.4871 14.9061H26.0138C26.0505 14.9061 26.0856 14.8909 26.1116 14.8638C26.1375 14.8368 26.1521 14.8001 26.1521 14.7618V12.3382C26.1521 12.2999 26.1375 12.2632 26.1116 12.2362C26.0856 12.2091 26.0505 12.1939 26.0138 12.1939H22.8472C23.2948 12.8008 23.5374 13.5453 23.5369 14.3111Z" fill="white"/>
<path d="M18.7817 4.9166V11.1518C19.2088 10.9432 19.6735 10.8316 20.145 10.8244C20.6165 10.8171 21.0841 10.9143 21.5169 11.1096H24.7731C24.8098 11.1096 24.845 11.0944 24.8709 11.0674C24.8969 11.0403 24.9114 11.0036 24.9114 10.9654V8.54055C24.9114 8.50229 24.8969 8.4656 24.8709 8.43854C24.845 8.41149 24.8098 8.39629 24.7731 8.39629H21.382V7.48453H26.0138C26.0505 7.48453 26.0856 7.46933 26.1116 7.44228C26.1375 7.41522 26.1521 7.37853 26.1521 7.34027V4.9166C26.1521 4.87834 26.1375 4.84165 26.1116 4.81459C26.0856 4.78754 26.0505 4.77234 26.0138 4.77234H18.92C18.9019 4.77234 18.8839 4.77607 18.8671 4.78332C18.8503 4.79057 18.8351 4.8012 18.8222 4.81459C18.8094 4.82799 18.7992 4.84389 18.7923 4.8614C18.7853 4.8789 18.7817 4.89766 18.7817 4.9166V4.9166Z" fill="white"/>
<path d="M19.3221 14.5085C19.3254 14.0867 19.555 13.726 19.9068 13.591C20.0003 13.5533 20.0997 13.5337 20.1999 13.5332C20.4207 13.5343 20.6331 13.6218 20.795 13.7785C20.9569 13.9352 21.0564 14.1496 21.0739 14.3792C21.0844 14.535 21.0833 14.6868 21.0816 14.8334V14.9061H21.8803C22.0165 14.4893 22.0061 14.0355 21.8509 13.6259C21.6958 13.2164 21.406 12.8778 21.0334 12.6708C20.6609 12.4637 20.2299 12.4017 19.8175 12.4959C19.4052 12.5901 19.0384 12.8342 18.7828 13.1847V14.7618C18.7828 14.8001 18.7974 14.8368 18.8233 14.8638C18.8493 14.8909 18.8844 14.9061 18.9211 14.9061H19.3183L19.3221 14.5085Z" fill="white"/>
<path d="M15.9394 14.7566C15.9333 14.6949 15.9288 14.632 15.9255 14.5696C15.9255 14.5564 15.9255 14.5431 15.9228 14.5304C15.92 14.4802 15.92 14.43 15.9189 14.3798C15.9189 14.3532 15.9189 14.3273 15.9189 14.3007C15.9183 13.6086 16.0723 12.9258 16.3687 12.3066C16.6651 11.6874 17.0957 11.1487 17.6264 10.7333V4.91654C17.6264 4.87828 17.6118 4.84159 17.5859 4.81453C17.5599 4.78748 17.5248 4.77228 17.4881 4.77228H15.165C15.1283 4.77228 15.0931 4.78748 15.0672 4.81453C15.0413 4.84159 15.0267 4.87828 15.0267 4.91654V10.3202L11.1676 4.83114C11.1547 4.81325 11.138 4.79874 11.1188 4.78872C11.0996 4.77871 11.0784 4.77348 11.057 4.77343H8.66416C8.62748 4.77343 8.59231 4.78863 8.56638 4.81569C8.54045 4.84274 8.52588 4.87944 8.52588 4.9177V14.7624C8.52588 14.8006 8.54045 14.8373 8.56638 14.8644C8.59231 14.8914 8.62748 14.9066 8.66416 14.9066H10.9873C11.0239 14.9066 11.0591 14.8914 11.085 14.8644C11.111 14.8373 11.1255 14.8006 11.1255 14.7624V9.35877L14.9841 14.8478C14.997 14.8657 15.0137 14.8802 15.0329 14.8902C15.0521 14.9002 15.0733 14.9054 15.0947 14.9055H15.9576C15.9532 14.8691 15.9482 14.8339 15.9443 14.7976C15.9427 14.7849 15.9405 14.7728 15.9394 14.7566Z" fill="white"/>
<path d="M15.9171 14.3007C15.9171 14.3273 15.9171 14.3533 15.9171 14.3798C15.9171 14.43 15.9171 14.4802 15.921 14.5304C15.921 14.5431 15.921 14.5564 15.9238 14.5697C15.9271 14.632 15.9315 14.6949 15.9376 14.7566C15.9376 14.7705 15.9409 14.7849 15.9426 14.7987C15.9464 14.8351 15.9514 14.8703 15.9558 14.9067H16.9105C16.9072 14.8853 16.9033 14.8651 16.9 14.8438C16.9 14.8374 16.9 14.8311 16.8972 14.8253C16.8255 14.3415 16.8533 13.8474 16.9787 13.3757C17.1041 12.904 17.3243 12.4655 17.6246 12.0894V10.7333C17.0939 11.1487 16.6633 11.6874 16.3669 12.3066C16.0705 12.9258 15.9165 13.6086 15.9171 14.3007V14.3007Z" fill="white"/>
<path d="M17.6263 14.7624V12.6578C17.3355 13.152 17.1822 13.7209 17.1839 14.3007V14.3007C17.1839 14.3521 17.1838 14.4029 17.1877 14.4537C17.1877 14.4692 17.1877 14.4854 17.1905 14.5015C17.1905 14.5356 17.1949 14.5696 17.1982 14.6037C17.1982 14.6239 17.2027 14.6435 17.2049 14.6614C17.2076 14.6902 17.2115 14.7191 17.2154 14.7491C17.2192 14.7791 17.2215 14.793 17.2253 14.8149C17.2292 14.8368 17.2336 14.8668 17.2386 14.8928C17.2386 14.8968 17.2386 14.9003 17.2386 14.9038H17.4881C17.5243 14.9038 17.559 14.889 17.5849 14.8625C17.6107 14.8361 17.6256 14.8001 17.6263 14.7624V14.7624Z" fill="white"/>
</g>
<defs>
<clipPath id="clip0_22_14">
<rect width="39" height="24" fill="white"/>
</clipPath>
</defs>
</svg>
