<svg width="24" height="18" viewBox="0 0 24 18" fill="none" xmlns="http://www.w3.org/2000/svg">
<path d="M23.9167 6.51915C23.9702 4.96852 23.6311 3.4295 22.9308 2.04498C22.4557 1.47688 21.7963 1.0935 21.0675 0.961649C18.0532 0.688135 15.0263 0.576031 12 0.625816C8.9847 0.573771 5.96877 0.682258 2.965 0.950816C2.37114 1.05884 1.82156 1.3374 1.38333 1.75248C0.408335 2.65165 0.300001 4.18998 0.191668 5.48998C0.0344892 7.82734 0.0344892 10.1726 0.191668 12.51C0.223009 13.2417 0.331953 13.968 0.516668 14.6766C0.647291 15.2238 0.911567 15.73 1.28583 16.15C1.72704 16.5871 2.28942 16.8815 2.9 16.995C5.23558 17.2833 7.5889 17.4028 9.94167 17.3525C13.7333 17.4066 17.0592 17.3525 20.9917 17.0492C21.6172 16.9426 22.1955 16.6478 22.6492 16.2041C22.9525 15.9007 23.179 15.5293 23.31 15.1208C23.6974 13.932 23.8877 12.6878 23.8733 11.4375C23.9167 10.8308 23.9167 7.16915 23.9167 6.51915ZM9.55167 12.0875V5.38165L15.965 8.75082C14.1667 9.74748 11.7942 10.8741 9.55167 12.0875Z" fill="#E8493E"/>
</svg>
